<mxfile host="app.diagrams.net" modified="2021-01-09T07:42:42.128Z" agent="5.0 (Macintosh; Intel Mac OS X 10_15_6) AppleWebKit/537.36 (KHTML, like Gecko) Chrome/86.0.4240.193 Safari/537.36" etag="suUOB1LJNyYlU-OD7FXk" version="14.1.8" type="github">
  <diagram id="CMIpnJLMkz2JDeegjr7A" name="Page-1">
    <mxGraphModel dx="1426" dy="771" grid="1" gridSize="10" guides="1" tooltips="1" connect="1" arrows="1" fold="1" page="1" pageScale="1" pageWidth="827" pageHeight="1169" math="0" shadow="0">
      <root>
        <mxCell id="0" />
        <mxCell id="1" parent="0" />
        <mxCell id="YY7l2TItJSjRf5bYk7bz-14" style="edgeStyle=none;rounded=0;orthogonalLoop=1;jettySize=auto;html=1;exitX=0;exitY=0.5;exitDx=0;exitDy=0;entryX=1;entryY=0.5;entryDx=0;entryDy=0;" edge="1" parent="1" source="YY7l2TItJSjRf5bYk7bz-1" target="YY7l2TItJSjRf5bYk7bz-2">
          <mxGeometry relative="1" as="geometry" />
        </mxCell>
        <mxCell id="YY7l2TItJSjRf5bYk7bz-15" style="edgeStyle=none;rounded=0;orthogonalLoop=1;jettySize=auto;html=1;exitX=1;exitY=0.5;exitDx=0;exitDy=0;entryX=0;entryY=0.5;entryDx=0;entryDy=0;" edge="1" parent="1" source="YY7l2TItJSjRf5bYk7bz-1" target="YY7l2TItJSjRf5bYk7bz-3">
          <mxGeometry relative="1" as="geometry" />
        </mxCell>
        <mxCell id="YY7l2TItJSjRf5bYk7bz-1" value="master" style="rounded=1;whiteSpace=wrap;html=1;fillColor=#dae8fc;strokeColor=#6c8ebf;" vertex="1" parent="1">
          <mxGeometry x="330" y="390" width="100" height="50" as="geometry" />
        </mxCell>
        <mxCell id="YY7l2TItJSjRf5bYk7bz-2" value="slave" style="rounded=1;whiteSpace=wrap;html=1;fillColor=#dae8fc;strokeColor=#6c8ebf;" vertex="1" parent="1">
          <mxGeometry x="170" y="390" width="100" height="50" as="geometry" />
        </mxCell>
        <mxCell id="YY7l2TItJSjRf5bYk7bz-3" value="slave" style="rounded=1;whiteSpace=wrap;html=1;fillColor=#dae8fc;strokeColor=#6c8ebf;" vertex="1" parent="1">
          <mxGeometry x="490" y="390" width="100" height="50" as="geometry" />
        </mxCell>
        <mxCell id="YY7l2TItJSjRf5bYk7bz-11" style="rounded=0;orthogonalLoop=1;jettySize=auto;html=1;exitX=0.5;exitY=1;exitDx=0;exitDy=0;entryX=0.5;entryY=0;entryDx=0;entryDy=0;" edge="1" parent="1" source="YY7l2TItJSjRf5bYk7bz-10" target="YY7l2TItJSjRf5bYk7bz-2">
          <mxGeometry relative="1" as="geometry" />
        </mxCell>
        <mxCell id="YY7l2TItJSjRf5bYk7bz-12" style="edgeStyle=none;rounded=0;orthogonalLoop=1;jettySize=auto;html=1;exitX=0.5;exitY=1;exitDx=0;exitDy=0;" edge="1" parent="1" source="YY7l2TItJSjRf5bYk7bz-10" target="YY7l2TItJSjRf5bYk7bz-1">
          <mxGeometry relative="1" as="geometry" />
        </mxCell>
        <mxCell id="YY7l2TItJSjRf5bYk7bz-13" style="edgeStyle=none;rounded=0;orthogonalLoop=1;jettySize=auto;html=1;exitX=0.5;exitY=1;exitDx=0;exitDy=0;entryX=0.5;entryY=0;entryDx=0;entryDy=0;" edge="1" parent="1" source="YY7l2TItJSjRf5bYk7bz-10" target="YY7l2TItJSjRf5bYk7bz-3">
          <mxGeometry relative="1" as="geometry" />
        </mxCell>
        <mxCell id="YY7l2TItJSjRf5bYk7bz-10" value="客户端" style="rounded=1;whiteSpace=wrap;html=1;fillColor=#ffe6cc;strokeColor=#d79b00;" vertex="1" parent="1">
          <mxGeometry x="330" y="260" width="100" height="50" as="geometry" />
        </mxCell>
        <mxCell id="YY7l2TItJSjRf5bYk7bz-16" value="读请求" style="text;html=1;strokeColor=none;fillColor=none;align=center;verticalAlign=middle;whiteSpace=wrap;rounded=0;" vertex="1" parent="1">
          <mxGeometry x="240" y="320" width="40" height="20" as="geometry" />
        </mxCell>
        <mxCell id="YY7l2TItJSjRf5bYk7bz-18" value="读请求" style="text;html=1;strokeColor=none;fillColor=none;align=center;verticalAlign=middle;whiteSpace=wrap;rounded=0;" vertex="1" parent="1">
          <mxGeometry x="470" y="320" width="40" height="20" as="geometry" />
        </mxCell>
        <mxCell id="YY7l2TItJSjRf5bYk7bz-19" value="读请求" style="text;html=1;strokeColor=none;fillColor=none;align=center;verticalAlign=middle;whiteSpace=wrap;rounded=0;" vertex="1" parent="1">
          <mxGeometry x="300" y="350" width="100" height="20" as="geometry" />
        </mxCell>
        <mxCell id="YY7l2TItJSjRf5bYk7bz-22" value="写请求" style="text;html=1;strokeColor=none;fillColor=none;align=center;verticalAlign=middle;whiteSpace=wrap;rounded=0;" vertex="1" parent="1">
          <mxGeometry x="360" y="350" width="100" height="20" as="geometry" />
        </mxCell>
        <mxCell id="YY7l2TItJSjRf5bYk7bz-23" value="写请求" style="text;html=1;strokeColor=none;fillColor=none;align=center;verticalAlign=middle;whiteSpace=wrap;rounded=0;" vertex="1" parent="1">
          <mxGeometry x="250" y="430" width="100" height="20" as="geometry" />
        </mxCell>
        <mxCell id="YY7l2TItJSjRf5bYk7bz-24" value="写请求" style="text;html=1;strokeColor=none;fillColor=none;align=center;verticalAlign=middle;whiteSpace=wrap;rounded=0;" vertex="1" parent="1">
          <mxGeometry x="414" y="430" width="100" height="20" as="geometry" />
        </mxCell>
      </root>
    </mxGraphModel>
  </diagram>
</mxfile>
